<?xml version="1.0" encoding="UTF-8" standalone="no"?><svg xmlns="http://www.w3.org/2000/svg" xmlns:xlink="http://www.w3.org/1999/xlink" contentScriptType="application/ecmascript" contentStyleType="text/css" height="624px" preserveAspectRatio="none" style="width:521px;height:624px;" version="1.1" viewBox="0 0 521 624" width="521px" zoomAndPan="magnify"><defs><filter height="300%" id="flys3ta" width="300%" x="-1" y="-1"><feGaussianBlur result="blurOut" stdDeviation="2.0"/><feColorMatrix in="blurOut" result="blurOut2" type="matrix" values="0 0 0 0 0 0 0 0 0 0 0 0 0 0 0 0 0 0 .4 0"/><feOffset dx="4.0" dy="4.0" in="blurOut2" result="blurOut3"/><feBlend in="SourceGraphic" in2="blurOut3" mode="normal"/></filter></defs><g><!--class Point--><rect fill="#FEFECE" filter="url(#flys3ta)" height="75.6719" style="stroke: #A80036; stroke-width: 1.5;" width="60" x="318.5" y="540"/><ellipse cx="333.5" cy="556" fill="#ADD1B2" rx="11" ry="11" style="stroke: #A80036; stroke-width: 1.0;"/><path d="M336.2656,551.875 Q336.4219,551.6563 336.6094,551.5469 Q336.7969,551.4375 337.0156,551.4375 Q337.3906,551.4375 337.625,551.6953 Q337.8594,551.9531 337.8594,552.5625 L337.8594,554.0156 Q337.8594,554.625 337.625,554.8906 Q337.3906,555.1563 337.0156,555.1563 Q336.6719,555.1563 336.4688,554.9531 Q336.2656,554.7656 336.1563,554.25 Q336.1094,553.8906 335.9219,553.7031 Q335.5938,553.3281 334.9844,553.1094 Q334.375,552.8906 333.75,552.8906 Q332.9844,552.8906 332.3516,553.2188 Q331.7188,553.5469 331.2266,554.2969 Q330.7344,555.0469 330.7344,556.0781 L330.7344,557.1719 Q330.7344,558.4063 331.625,559.2266 Q332.5156,560.0469 334.1094,560.0469 Q335.0469,560.0469 335.7031,559.7969 Q336.0938,559.6406 336.5156,559.2031 Q336.7813,558.9375 336.9297,558.8594 Q337.0781,558.7813 337.2813,558.7813 Q337.6094,558.7813 337.8672,559.0391 Q338.125,559.2969 338.125,559.6406 Q338.125,559.9844 337.7813,560.3906 Q337.2813,560.9688 336.4844,561.2969 Q335.4063,561.75 334.1094,561.75 Q332.5938,561.75 331.3906,561.125 Q330.4063,560.625 329.7188,559.5547 Q329.0313,558.4844 329.0313,557.2031 L329.0313,556.0469 Q329.0313,554.7188 329.6484,553.5703 Q330.2656,552.4219 331.3594,551.8047 Q332.4531,551.1875 333.6875,551.1875 Q334.4219,551.1875 335.0703,551.3516 Q335.7188,551.5156 336.2656,551.875 Z "/><text fill="#000000" font-family="sans-serif" font-size="12" lengthAdjust="spacingAndGlyphs" textLength="28" x="347.5" y="560.9102">Point</text><line style="stroke: #A80036; stroke-width: 1.5;" x1="319.5" x2="377.5" y1="572" y2="572"/><ellipse cx="329.5" cy="584.418" fill="none" rx="3" ry="3" style="stroke: #038048; stroke-width: 1.0;"/><text fill="#000000" font-family="sans-serif" font-size="11" lengthAdjust="spacingAndGlyphs" textLength="6" x="338.5" y="587.4189">x</text><ellipse cx="329.5" cy="598.2539" fill="none" rx="3" ry="3" style="stroke: #038048; stroke-width: 1.0;"/><text fill="#000000" font-family="sans-serif" font-size="11" lengthAdjust="spacingAndGlyphs" textLength="6" x="338.5" y="601.2549">y</text><line style="stroke: #A80036; stroke-width: 1.5;" x1="319.5" x2="377.5" y1="607.6719" y2="607.6719"/><!--class CityMap--><rect fill="#FEFECE" filter="url(#flys3ta)" height="48" style="stroke: #A80036; stroke-width: 1.5;" width="75" x="53" y="274"/><ellipse cx="68" cy="290" fill="#ADD1B2" rx="11" ry="11" style="stroke: #A80036; stroke-width: 1.0;"/><path d="M70.7656,285.875 Q70.9219,285.6563 71.1094,285.5469 Q71.2969,285.4375 71.5156,285.4375 Q71.8906,285.4375 72.125,285.6953 Q72.3594,285.9531 72.3594,286.5625 L72.3594,288.0156 Q72.3594,288.625 72.125,288.8906 Q71.8906,289.1563 71.5156,289.1563 Q71.1719,289.1563 70.9688,288.9531 Q70.7656,288.7656 70.6563,288.25 Q70.6094,287.8906 70.4219,287.7031 Q70.0938,287.3281 69.4844,287.1094 Q68.875,286.8906 68.25,286.8906 Q67.4844,286.8906 66.8516,287.2188 Q66.2188,287.5469 65.7266,288.2969 Q65.2344,289.0469 65.2344,290.0781 L65.2344,291.1719 Q65.2344,292.4063 66.125,293.2266 Q67.0156,294.0469 68.6094,294.0469 Q69.5469,294.0469 70.2031,293.7969 Q70.5938,293.6406 71.0156,293.2031 Q71.2813,292.9375 71.4297,292.8594 Q71.5781,292.7813 71.7813,292.7813 Q72.1094,292.7813 72.3672,293.0391 Q72.625,293.2969 72.625,293.6406 Q72.625,293.9844 72.2813,294.3906 Q71.7813,294.9688 70.9844,295.2969 Q69.9063,295.75 68.6094,295.75 Q67.0938,295.75 65.8906,295.125 Q64.9063,294.625 64.2188,293.5547 Q63.5313,292.4844 63.5313,291.2031 L63.5313,290.0469 Q63.5313,288.7188 64.1484,287.5703 Q64.7656,286.4219 65.8594,285.8047 Q66.9531,285.1875 68.1875,285.1875 Q68.9219,285.1875 69.5703,285.3516 Q70.2188,285.5156 70.7656,285.875 Z "/><text fill="#000000" font-family="sans-serif" font-size="12" lengthAdjust="spacingAndGlyphs" textLength="43" x="82" y="294.9102">CityMap</text><line style="stroke: #A80036; stroke-width: 1.5;" x1="54" x2="127" y1="306" y2="306"/><line style="stroke: #A80036; stroke-width: 1.5;" x1="54" x2="127" y1="314" y2="314"/><!--class Intersection--><rect fill="#FEFECE" filter="url(#flys3ta)" height="48" style="stroke: #A80036; stroke-width: 1.5;" width="96" x="300.5" y="414"/><ellipse cx="315.5" cy="430" fill="#ADD1B2" rx="11" ry="11" style="stroke: #A80036; stroke-width: 1.0;"/><path d="M318.2656,425.875 Q318.4219,425.6563 318.6094,425.5469 Q318.7969,425.4375 319.0156,425.4375 Q319.3906,425.4375 319.625,425.6953 Q319.8594,425.9531 319.8594,426.5625 L319.8594,428.0156 Q319.8594,428.625 319.625,428.8906 Q319.3906,429.1563 319.0156,429.1563 Q318.6719,429.1563 318.4688,428.9531 Q318.2656,428.7656 318.1563,428.25 Q318.1094,427.8906 317.9219,427.7031 Q317.5938,427.3281 316.9844,427.1094 Q316.375,426.8906 315.75,426.8906 Q314.9844,426.8906 314.3516,427.2188 Q313.7188,427.5469 313.2266,428.2969 Q312.7344,429.0469 312.7344,430.0781 L312.7344,431.1719 Q312.7344,432.4063 313.625,433.2266 Q314.5156,434.0469 316.1094,434.0469 Q317.0469,434.0469 317.7031,433.7969 Q318.0938,433.6406 318.5156,433.2031 Q318.7813,432.9375 318.9297,432.8594 Q319.0781,432.7813 319.2813,432.7813 Q319.6094,432.7813 319.8672,433.0391 Q320.125,433.2969 320.125,433.6406 Q320.125,433.9844 319.7813,434.3906 Q319.2813,434.9688 318.4844,435.2969 Q317.4063,435.75 316.1094,435.75 Q314.5938,435.75 313.3906,435.125 Q312.4063,434.625 311.7188,433.5547 Q311.0313,432.4844 311.0313,431.2031 L311.0313,430.0469 Q311.0313,428.7188 311.6484,427.5703 Q312.2656,426.4219 313.3594,425.8047 Q314.4531,425.1875 315.6875,425.1875 Q316.4219,425.1875 317.0703,425.3516 Q317.7188,425.5156 318.2656,425.875 Z "/><text fill="#000000" font-family="sans-serif" font-size="12" lengthAdjust="spacingAndGlyphs" textLength="64" x="329.5" y="434.9102">Intersection</text><line style="stroke: #A80036; stroke-width: 1.5;" x1="301.5" x2="395.5" y1="446" y2="446"/><line style="stroke: #A80036; stroke-width: 1.5;" x1="301.5" x2="395.5" y1="454" y2="454"/><!--class StreetPart--><rect fill="#FEFECE" filter="url(#flys3ta)" height="75.6719" style="stroke: #A80036; stroke-width: 1.5;" width="86" x="423.5" y="260"/><ellipse cx="438.5" cy="276" fill="#ADD1B2" rx="11" ry="11" style="stroke: #A80036; stroke-width: 1.0;"/><path d="M441.2656,271.875 Q441.4219,271.6563 441.6094,271.5469 Q441.7969,271.4375 442.0156,271.4375 Q442.3906,271.4375 442.625,271.6953 Q442.8594,271.9531 442.8594,272.5625 L442.8594,274.0156 Q442.8594,274.625 442.625,274.8906 Q442.3906,275.1563 442.0156,275.1563 Q441.6719,275.1563 441.4688,274.9531 Q441.2656,274.7656 441.1563,274.25 Q441.1094,273.8906 440.9219,273.7031 Q440.5938,273.3281 439.9844,273.1094 Q439.375,272.8906 438.75,272.8906 Q437.9844,272.8906 437.3516,273.2188 Q436.7188,273.5469 436.2266,274.2969 Q435.7344,275.0469 435.7344,276.0781 L435.7344,277.1719 Q435.7344,278.4063 436.625,279.2266 Q437.5156,280.0469 439.1094,280.0469 Q440.0469,280.0469 440.7031,279.7969 Q441.0938,279.6406 441.5156,279.2031 Q441.7813,278.9375 441.9297,278.8594 Q442.0781,278.7813 442.2813,278.7813 Q442.6094,278.7813 442.8672,279.0391 Q443.125,279.2969 443.125,279.6406 Q443.125,279.9844 442.7813,280.3906 Q442.2813,280.9688 441.4844,281.2969 Q440.4063,281.75 439.1094,281.75 Q437.5938,281.75 436.3906,281.125 Q435.4063,280.625 434.7188,279.5547 Q434.0313,278.4844 434.0313,277.2031 L434.0313,276.0469 Q434.0313,274.7188 434.6484,273.5703 Q435.2656,272.4219 436.3594,271.8047 Q437.4531,271.1875 438.6875,271.1875 Q439.4219,271.1875 440.0703,271.3516 Q440.7188,271.5156 441.2656,271.875 Z "/><text fill="#000000" font-family="sans-serif" font-size="12" lengthAdjust="spacingAndGlyphs" textLength="54" x="452.5" y="280.9102">StreetPart</text><line style="stroke: #A80036; stroke-width: 1.5;" x1="424.5" x2="508.5" y1="292" y2="292"/><ellipse cx="434.5" cy="304.418" fill="none" rx="3" ry="3" style="stroke: #038048; stroke-width: 1.0;"/><text fill="#000000" font-family="sans-serif" font-size="11" lengthAdjust="spacingAndGlyphs" textLength="30" x="443.5" y="307.4189">speed</text><ellipse cx="434.5" cy="318.2539" fill="none" rx="3" ry="3" style="stroke: #038048; stroke-width: 1.0;"/><text fill="#000000" font-family="sans-serif" font-size="11" lengthAdjust="spacingAndGlyphs" textLength="41" x="443.5" y="321.2549">distance</text><line style="stroke: #A80036; stroke-width: 1.5;" x1="424.5" x2="508.5" y1="327.6719" y2="327.6719"/><!--class DeliveryGraph--><rect fill="#FEFECE" filter="url(#flys3ta)" height="48" style="stroke: #A80036; stroke-width: 1.5;" width="109" x="6" y="134"/><ellipse cx="21" cy="150" fill="#ADD1B2" rx="11" ry="11" style="stroke: #A80036; stroke-width: 1.0;"/><path d="M23.7656,145.875 Q23.9219,145.6563 24.1094,145.5469 Q24.2969,145.4375 24.5156,145.4375 Q24.8906,145.4375 25.125,145.6953 Q25.3594,145.9531 25.3594,146.5625 L25.3594,148.0156 Q25.3594,148.625 25.125,148.8906 Q24.8906,149.1563 24.5156,149.1563 Q24.1719,149.1563 23.9688,148.9531 Q23.7656,148.7656 23.6563,148.25 Q23.6094,147.8906 23.4219,147.7031 Q23.0938,147.3281 22.4844,147.1094 Q21.875,146.8906 21.25,146.8906 Q20.4844,146.8906 19.8516,147.2188 Q19.2188,147.5469 18.7266,148.2969 Q18.2344,149.0469 18.2344,150.0781 L18.2344,151.1719 Q18.2344,152.4063 19.125,153.2266 Q20.0156,154.0469 21.6094,154.0469 Q22.5469,154.0469 23.2031,153.7969 Q23.5938,153.6406 24.0156,153.2031 Q24.2813,152.9375 24.4297,152.8594 Q24.5781,152.7813 24.7813,152.7813 Q25.1094,152.7813 25.3672,153.0391 Q25.625,153.2969 25.625,153.6406 Q25.625,153.9844 25.2813,154.3906 Q24.7813,154.9688 23.9844,155.2969 Q22.9063,155.75 21.6094,155.75 Q20.0938,155.75 18.8906,155.125 Q17.9063,154.625 17.2188,153.5547 Q16.5313,152.4844 16.5313,151.2031 L16.5313,150.0469 Q16.5313,148.7188 17.1484,147.5703 Q17.7656,146.4219 18.8594,145.8047 Q19.9531,145.1875 21.1875,145.1875 Q21.9219,145.1875 22.5703,145.3516 Q23.2188,145.5156 23.7656,145.875 Z "/><text fill="#000000" font-family="sans-serif" font-size="12" lengthAdjust="spacingAndGlyphs" textLength="77" x="35" y="154.9102">DeliveryGraph</text><line style="stroke: #A80036; stroke-width: 1.5;" x1="7" x2="114" y1="166" y2="166"/><line style="stroke: #A80036; stroke-width: 1.5;" x1="7" x2="114" y1="174" y2="174"/><!--class DeliveryAddress--><rect fill="#FEFECE" filter="url(#flys3ta)" height="61.8359" style="stroke: #A80036; stroke-width: 1.5;" width="121" x="201" y="267"/><ellipse cx="216" cy="283" fill="#ADD1B2" rx="11" ry="11" style="stroke: #A80036; stroke-width: 1.0;"/><path d="M218.7656,278.875 Q218.9219,278.6563 219.1094,278.5469 Q219.2969,278.4375 219.5156,278.4375 Q219.8906,278.4375 220.125,278.6953 Q220.3594,278.9531 220.3594,279.5625 L220.3594,281.0156 Q220.3594,281.625 220.125,281.8906 Q219.8906,282.1563 219.5156,282.1563 Q219.1719,282.1563 218.9688,281.9531 Q218.7656,281.7656 218.6563,281.25 Q218.6094,280.8906 218.4219,280.7031 Q218.0938,280.3281 217.4844,280.1094 Q216.875,279.8906 216.25,279.8906 Q215.4844,279.8906 214.8516,280.2188 Q214.2188,280.5469 213.7266,281.2969 Q213.2344,282.0469 213.2344,283.0781 L213.2344,284.1719 Q213.2344,285.4063 214.125,286.2266 Q215.0156,287.0469 216.6094,287.0469 Q217.5469,287.0469 218.2031,286.7969 Q218.5938,286.6406 219.0156,286.2031 Q219.2813,285.9375 219.4297,285.8594 Q219.5781,285.7813 219.7813,285.7813 Q220.1094,285.7813 220.3672,286.0391 Q220.625,286.2969 220.625,286.6406 Q220.625,286.9844 220.2813,287.3906 Q219.7813,287.9688 218.9844,288.2969 Q217.9063,288.75 216.6094,288.75 Q215.0938,288.75 213.8906,288.125 Q212.9063,287.625 212.2188,286.5547 Q211.5313,285.4844 211.5313,284.2031 L211.5313,283.0469 Q211.5313,281.7188 212.1484,280.5703 Q212.7656,279.4219 213.8594,278.8047 Q214.9531,278.1875 216.1875,278.1875 Q216.9219,278.1875 217.5703,278.3516 Q218.2188,278.5156 218.7656,278.875 Z "/><text fill="#000000" font-family="sans-serif" font-size="12" lengthAdjust="spacingAndGlyphs" textLength="89" x="230" y="287.9102">DeliveryAddress</text><line style="stroke: #A80036; stroke-width: 1.5;" x1="202" x2="321" y1="299" y2="299"/><ellipse cx="212" cy="311.418" fill="none" rx="3" ry="3" style="stroke: #038048; stroke-width: 1.0;"/><text fill="#000000" font-family="sans-serif" font-size="11" lengthAdjust="spacingAndGlyphs" textLength="72" x="221" y="314.4189">unloadDuration</text><line style="stroke: #A80036; stroke-width: 1.5;" x1="202" x2="321" y1="320.8359" y2="320.8359"/><!--class InterAddressPath--><rect fill="#FEFECE" filter="url(#flys3ta)" height="48" style="stroke: #A80036; stroke-width: 1.5;" width="127" x="294" y="134"/><ellipse cx="309" cy="150" fill="#ADD1B2" rx="11" ry="11" style="stroke: #A80036; stroke-width: 1.0;"/><path d="M311.7656,145.875 Q311.9219,145.6563 312.1094,145.5469 Q312.2969,145.4375 312.5156,145.4375 Q312.8906,145.4375 313.125,145.6953 Q313.3594,145.9531 313.3594,146.5625 L313.3594,148.0156 Q313.3594,148.625 313.125,148.8906 Q312.8906,149.1563 312.5156,149.1563 Q312.1719,149.1563 311.9688,148.9531 Q311.7656,148.7656 311.6563,148.25 Q311.6094,147.8906 311.4219,147.7031 Q311.0938,147.3281 310.4844,147.1094 Q309.875,146.8906 309.25,146.8906 Q308.4844,146.8906 307.8516,147.2188 Q307.2188,147.5469 306.7266,148.2969 Q306.2344,149.0469 306.2344,150.0781 L306.2344,151.1719 Q306.2344,152.4063 307.125,153.2266 Q308.0156,154.0469 309.6094,154.0469 Q310.5469,154.0469 311.2031,153.7969 Q311.5938,153.6406 312.0156,153.2031 Q312.2813,152.9375 312.4297,152.8594 Q312.5781,152.7813 312.7813,152.7813 Q313.1094,152.7813 313.3672,153.0391 Q313.625,153.2969 313.625,153.6406 Q313.625,153.9844 313.2813,154.3906 Q312.7813,154.9688 311.9844,155.2969 Q310.9063,155.75 309.6094,155.75 Q308.0938,155.75 306.8906,155.125 Q305.9063,154.625 305.2188,153.5547 Q304.5313,152.4844 304.5313,151.2031 L304.5313,150.0469 Q304.5313,148.7188 305.1484,147.5703 Q305.7656,146.4219 306.8594,145.8047 Q307.9531,145.1875 309.1875,145.1875 Q309.9219,145.1875 310.5703,145.3516 Q311.2188,145.5156 311.7656,145.875 Z "/><text fill="#000000" font-family="sans-serif" font-size="12" lengthAdjust="spacingAndGlyphs" textLength="95" x="323" y="154.9102">InterAddressPath</text><line style="stroke: #A80036; stroke-width: 1.5;" x1="295" x2="420" y1="166" y2="166"/><line style="stroke: #A80036; stroke-width: 1.5;" x1="295" x2="420" y1="174" y2="174"/><!--class DeliveryRoute--><rect fill="#FEFECE" filter="url(#flys3ta)" height="48" style="stroke: #A80036; stroke-width: 1.5;" width="108" x="303.5" y="8"/><ellipse cx="318.5" cy="24" fill="#ADD1B2" rx="11" ry="11" style="stroke: #A80036; stroke-width: 1.0;"/><path d="M321.2656,19.875 Q321.4219,19.6563 321.6094,19.5469 Q321.7969,19.4375 322.0156,19.4375 Q322.3906,19.4375 322.625,19.6953 Q322.8594,19.9531 322.8594,20.5625 L322.8594,22.0156 Q322.8594,22.625 322.625,22.8906 Q322.3906,23.1563 322.0156,23.1563 Q321.6719,23.1563 321.4688,22.9531 Q321.2656,22.7656 321.1563,22.25 Q321.1094,21.8906 320.9219,21.7031 Q320.5938,21.3281 319.9844,21.1094 Q319.375,20.8906 318.75,20.8906 Q317.9844,20.8906 317.3516,21.2188 Q316.7188,21.5469 316.2266,22.2969 Q315.7344,23.0469 315.7344,24.0781 L315.7344,25.1719 Q315.7344,26.4063 316.625,27.2266 Q317.5156,28.0469 319.1094,28.0469 Q320.0469,28.0469 320.7031,27.7969 Q321.0938,27.6406 321.5156,27.2031 Q321.7813,26.9375 321.9297,26.8594 Q322.0781,26.7813 322.2813,26.7813 Q322.6094,26.7813 322.8672,27.0391 Q323.125,27.2969 323.125,27.6406 Q323.125,27.9844 322.7813,28.3906 Q322.2813,28.9688 321.4844,29.2969 Q320.4063,29.75 319.1094,29.75 Q317.5938,29.75 316.3906,29.125 Q315.4063,28.625 314.7188,27.5547 Q314.0313,26.4844 314.0313,25.2031 L314.0313,24.0469 Q314.0313,22.7188 314.6484,21.5703 Q315.2656,20.4219 316.3594,19.8047 Q317.4531,19.1875 318.6875,19.1875 Q319.4219,19.1875 320.0703,19.3516 Q320.7188,19.5156 321.2656,19.875 Z "/><text fill="#000000" font-family="sans-serif" font-size="12" lengthAdjust="spacingAndGlyphs" textLength="76" x="332.5" y="28.9102">DeliveryRoute</text><line style="stroke: #A80036; stroke-width: 1.5;" x1="304.5" x2="410.5" y1="40" y2="40"/><line style="stroke: #A80036; stroke-width: 1.5;" x1="304.5" x2="410.5" y1="48" y2="48"/><path d="M114.164,332.572 C128.144,350.167 147.245,370.753 168.5,384 C204.695,406.559 250.947,419.905 287.503,427.563 " fill="none" style="stroke: #A80036; stroke-width: 1.0;"/><polygon fill="#A80036" points="300.495,430.133,292.4424,424.4625,295.5901,429.1627,290.8898,432.3104,300.495,430.133" style="stroke: #A80036; stroke-width: 1.0;"/><line style="stroke: #A80036; stroke-width: 1.0;" x1="295.5901" x2="287.742" y1="429.1627" y2="427.6095"/><polygon fill="#A80036" points="106.148,322.095,106.6168,329.2908,113.4395,331.6257,112.9706,324.4299,106.148,322.095" style="stroke: #A80036; stroke-width: 1.0;"/><text fill="#000000" font-family="sans-serif" font-size="13" lengthAdjust="spacingAndGlyphs" textLength="74" x="169.5" y="380.4951">intersections</text><text fill="#000000" font-family="sans-serif" font-size="13" lengthAdjust="spacingAndGlyphs" textLength="20" x="87.5247" y="343.4561">0..*</text><path d="M348.5,462.098 C348.5,481.869 348.5,510.842 348.5,534.747 " fill="none" style="stroke: #A80036; stroke-width: 1.0;"/><polygon fill="#A80036" points="348.5,539.766,352.5,530.766,348.5,534.766,344.5,530.766,348.5,539.766" style="stroke: #A80036; stroke-width: 1.0;"/><text fill="#000000" font-family="sans-serif" font-size="13" lengthAdjust="spacingAndGlyphs" textLength="67" x="349.5" y="506.4951">coordinates</text><path d="M423.499,310.493 C395.926,320.338 362.264,337.555 345.5,366 C338.024,378.685 338.171,394.973 340.457,408.748 " fill="none" style="stroke: #A80036; stroke-width: 1.0;"/><polygon fill="#A80036" points="341.386,413.698,343.6562,404.1144,340.4632,408.7839,335.7936,405.5909,341.386,413.698" style="stroke: #A80036; stroke-width: 1.0;"/><text fill="#000000" font-family="sans-serif" font-size="13" lengthAdjust="spacingAndGlyphs" textLength="39" x="346.5" y="380.4951">source</text><path d="M434.568,336.345 C414.648,359.64 389.474,389.081 371.507,410.093 " fill="none" style="stroke: #A80036; stroke-width: 1.0;"/><polygon fill="#A80036" points="368.239,413.915,377.1276,409.6733,371.488,410.1145,371.0468,404.4749,368.239,413.915" style="stroke: #A80036; stroke-width: 1.0;"/><text fill="#000000" font-family="sans-serif" font-size="13" lengthAdjust="spacingAndGlyphs" textLength="33" x="408.5" y="380.4951">target</text><path d="M464.635,349.288 C462.224,361.547 457.93,373.996 450.5,384 C439.928,398.235 424.407,408.973 408.646,416.927 " fill="none" style="stroke: #A80036; stroke-width: 1.0;"/><polygon fill="#FFFFFF" points="396.626,422.478,403.7502,423.5942,407.5206,417.4474,400.3964,416.3311,396.626,422.478" style="stroke: #A80036; stroke-width: 1.0;"/><polygon fill="#A80036" points="466.571,336.185,461.2978,344.5032,465.8398,341.1312,469.2117,345.6732,466.571,336.185" style="stroke: #A80036; stroke-width: 1.0;"/><line style="stroke: #A80036; stroke-width: 1.0;" x1="465.8398" x2="464.6705" y1="341.1312" y2="349.0455"/><text fill="#000000" font-family="sans-serif" font-size="13" lengthAdjust="spacingAndGlyphs" textLength="60" x="460.5" y="380.4951">outStreets</text><text fill="#000000" font-family="sans-serif" font-size="13" lengthAdjust="spacingAndGlyphs" textLength="20" x="404.4367" y="416.836">1..*</text><path d="M38.8559,182.002 C28.6247,195.735 19.9401,213.636 26.5,230 C32.6303,245.293 44.0996,259.073 55.6547,270.104 " fill="none" style="stroke: #A80036; stroke-width: 1.0;"/><polygon fill="#A80036" points="59.569,273.737,55.6946,264.6822,55.9046,270.3352,50.2517,270.5453,59.569,273.737" style="stroke: #A80036; stroke-width: 1.0;"/><text fill="#000000" font-family="sans-serif" font-size="13" lengthAdjust="spacingAndGlyphs" textLength="21" x="27.5" y="226.4951">city</text><path d="M252.965,329.193 C249.87,346.341 249.12,367.591 258.5,384 C266.9,398.695 281.14,409.72 295.844,417.797 " fill="none" style="stroke: #A80036; stroke-width: 1.0;"/><polygon fill="#A80036" points="300.416,420.211,294.3246,412.4718,295.9944,417.8766,290.5896,419.5464,300.416,420.211" style="stroke: #A80036; stroke-width: 1.0;"/><text fill="#000000" font-family="sans-serif" font-size="13" lengthAdjust="spacingAndGlyphs" textLength="45" x="259.5" y="380.4951">location</text><path d="M392.806,182.259 C403.884,190.711 415.545,200.931 424.5,212 C434.825,224.762 443.479,240.48 450.197,254.914 " fill="none" style="stroke: #A80036; stroke-width: 1.0;"/><polygon fill="#A80036" points="452.401,259.754,452.3099,249.9056,450.3281,255.2039,445.0297,253.2222,452.401,259.754" style="stroke: #A80036; stroke-width: 1.0;"/><text fill="#000000" font-family="sans-serif" font-size="13" lengthAdjust="spacingAndGlyphs" textLength="64" x="437.5" y="226.4951">streetParts</text><path d="M82.2013,192.961 C91.5968,205.76 103.4396,219.697 116.5,230 C137.919,246.897 164.29,260.701 188.643,271.295 " fill="none" style="stroke: #A80036; stroke-width: 1.0;"/><polygon fill="#A80036" points="200.78,276.389,194.0295,269.2175,196.1697,274.4539,190.9333,276.5941,200.78,276.389" style="stroke: #A80036; stroke-width: 1.0;"/><line style="stroke: #A80036; stroke-width: 1.0;" x1="196.1697" x2="188.793" y1="274.4539" y2="271.3585"/><polygon fill="#FFFFFF" points="74.6054,182.127,74.7752,189.3361,81.4951,191.9521,81.3253,184.743,74.6054,182.127" style="stroke: #A80036; stroke-width: 1.0;"/><text fill="#000000" font-family="sans-serif" font-size="13" lengthAdjust="spacingAndGlyphs" textLength="105" x="117.5" y="226.4951">deliveryAddresses</text><text fill="#000000" font-family="sans-serif" font-size="13" lengthAdjust="spacingAndGlyphs" textLength="20" x="55.6061" y="203.4959">0..*</text><path d="M293.986,171.752 C271.967,179.546 249.551,192.036 236.5,212 C226.653,227.064 231.028,246.113 238.683,262.358 " fill="none" style="stroke: #A80036; stroke-width: 1.0;"/><polygon fill="#A80036" points="240.92,266.86,240.4979,257.0202,238.6954,262.3822,233.3334,260.5796,240.92,266.86" style="stroke: #A80036; stroke-width: 1.0;"/><text fill="#000000" font-family="sans-serif" font-size="13" lengthAdjust="spacingAndGlyphs" textLength="39" x="237.5" y="226.4951">source</text><path d="M339.452,182.243 C332.462,191.417 324.479,202.11 317.5,212 C305.951,228.365 293.651,246.901 283.529,262.478 " fill="none" style="stroke: #A80036; stroke-width: 1.0;"/><polygon fill="#A80036" points="280.735,266.789,288.9872,261.413,283.4549,262.5935,282.2744,257.0612,280.735,266.789" style="stroke: #A80036; stroke-width: 1.0;"/><text fill="#000000" font-family="sans-serif" font-size="13" lengthAdjust="spacingAndGlyphs" textLength="33" x="318.5" y="226.4951">target</text><path d="M363.283,195.154 C363.551,206.849 362.039,219.498 356.5,230 C350.7,240.997 342.191,250.581 332.612,258.795 " fill="none" style="stroke: #A80036; stroke-width: 1.0;"/><polygon fill="#FFFFFF" points="322.311,266.862,329.5011,266.3119,331.7588,259.4634,324.5687,260.0134,322.311,266.862" style="stroke: #A80036; stroke-width: 1.0;"/><polygon fill="#A80036" points="362.285,182.05,358.9799,191.3277,362.6647,187.0356,366.9568,190.7203,362.285,182.05" style="stroke: #A80036; stroke-width: 1.0;"/><line style="stroke: #A80036; stroke-width: 1.0;" x1="362.6647" x2="363.273" y1="187.0356" y2="195.0125"/><text fill="#000000" font-family="sans-serif" font-size="13" lengthAdjust="spacingAndGlyphs" textLength="52" x="363.5" y="226.4951">outPaths</text><text fill="#000000" font-family="sans-serif" font-size="13" lengthAdjust="spacingAndGlyphs" textLength="20" x="312.7908" y="256.3381">1..*</text><path d="M357.5,69.212 C357.5,85.298 357.5,104.203 357.5,120.341 " fill="none" style="stroke: #A80036; stroke-width: 1.0;"/><polygon fill="#A80036" points="357.5,133.67,361.5,124.67,357.5,128.67,353.5,124.67,357.5,133.67" style="stroke: #A80036; stroke-width: 1.0;"/><line style="stroke: #A80036; stroke-width: 1.0;" x1="357.5" x2="357.5" y1="128.67" y2="120.67"/><polygon fill="#FFFFFF" points="357.5,56.033,353.5,62.033,357.5,68.033,361.5,62.033,357.5,56.033" style="stroke: #A80036; stroke-width: 1.0;"/><text fill="#000000" font-family="sans-serif" font-size="13" lengthAdjust="spacingAndGlyphs" textLength="32" x="358.5" y="100.4951">paths</text></g></svg>