<?xml version="1.0" encoding="UTF-8" standalone="no"?><svg xmlns="http://www.w3.org/2000/svg" xmlns:xlink="http://www.w3.org/1999/xlink" contentScriptType="application/ecmascript" contentStyleType="text/css" height="417px" preserveAspectRatio="none" style="width:604px;height:417px;" version="1.1" viewBox="0 0 604 417" width="604px" zoomAndPan="magnify"><defs><filter height="300%" id="fst2xk8" width="300%" x="-1" y="-1"><feGaussianBlur result="blurOut" stdDeviation="2.0"/><feColorMatrix in="blurOut" result="blurOut2" type="matrix" values="0 0 0 0 0 0 0 0 0 0 0 0 0 0 0 0 0 0 .4 0"/><feOffset dx="4.0" dy="4.0" in="blurOut2" result="blurOut3"/><feBlend in="SourceGraphic" in2="blurOut3" mode="normal"/></filter></defs><g><rect fill="#FFFFFF" filter="url(#fst2xk8)" height="280.9766" style="stroke: #A80036; stroke-width: 1.0;" width="10" x="130" y="71.6094"/><rect fill="#FFFFFF" filter="url(#fst2xk8)" height="28" style="stroke: #A80036; stroke-width: 1.0;" width="10" x="135" y="324.5859"/><rect fill="#FFFFFF" filter="url(#fst2xk8)" height="30.3516" style="stroke: #A80036; stroke-width: 1.0;" width="10" x="446" y="195.1797"/><rect fill="#FFFFFF" filter="url(#fst2xk8)" height="30.3516" style="stroke: #A80036; stroke-width: 1.0;" width="10" x="551.5" y="255.8828"/><rect fill="#FEFECE" filter="url(#fst2xk8)" height="31.6094" style="stroke: #A80036; stroke-width: 1.5;" width="102" x="398" y="79.9609"/><text fill="#000000" font-family="sans-serif" font-size="14" lengthAdjust="spacingAndGlyphs" textLength="88" x="405" y="101.4941">GraphFactory</text><rect fill="#FEFECE" filter="url(#fst2xk8)" height="31.6094" style="stroke: #A80036; stroke-width: 1.5;" width="81" x="514" y="126.5703"/><text fill="#000000" font-family="sans-serif" font-size="14" lengthAdjust="spacingAndGlyphs" textLength="67" x="521" y="148.1035">TSPSolver</text><line style="stroke: #A80036; stroke-width: 1.0; stroke-dasharray: 5.0,5.0;" x1="135" x2="135" y1="39.6094" y2="377.9375"/><line style="stroke: #A80036; stroke-width: 1.0; stroke-dasharray: 5.0,5.0;" x1="451" x2="451" y1="113.2656" y2="377.9375"/><line style="stroke: #A80036; stroke-width: 1.0; stroke-dasharray: 5.0,5.0;" x1="556" x2="556" y1="159.875" y2="377.9375"/><rect fill="#FEFECE" filter="url(#fst2xk8)" height="31.6094" style="stroke: #A80036; stroke-width: 1.5;" width="76" x="95" y="3"/><text fill="#000000" font-family="sans-serif" font-size="14" lengthAdjust="spacingAndGlyphs" textLength="62" x="102" y="24.5332">Controller</text><rect fill="#FEFECE" filter="url(#fst2xk8)" height="31.6094" style="stroke: #A80036; stroke-width: 1.5;" width="76" x="95" y="376.9375"/><text fill="#000000" font-family="sans-serif" font-size="14" lengthAdjust="spacingAndGlyphs" textLength="62" x="102" y="398.4707">Controller</text><rect fill="#FEFECE" filter="url(#fst2xk8)" height="31.6094" style="stroke: #A80036; stroke-width: 1.5;" width="102" x="398" y="376.9375"/><text fill="#000000" font-family="sans-serif" font-size="14" lengthAdjust="spacingAndGlyphs" textLength="88" x="405" y="398.4707">GraphFactory</text><rect fill="#FEFECE" filter="url(#fst2xk8)" height="31.6094" style="stroke: #A80036; stroke-width: 1.5;" width="81" x="514" y="376.9375"/><text fill="#000000" font-family="sans-serif" font-size="14" lengthAdjust="spacingAndGlyphs" textLength="67" x="521" y="398.4707">TSPSolver</text><rect fill="#FFFFFF" filter="url(#fst2xk8)" height="280.9766" style="stroke: #A80036; stroke-width: 1.0;" width="10" x="130" y="71.6094"/><rect fill="#FFFFFF" filter="url(#fst2xk8)" height="28" style="stroke: #A80036; stroke-width: 1.0;" width="10" x="135" y="324.5859"/><rect fill="#FFFFFF" filter="url(#fst2xk8)" height="30.3516" style="stroke: #A80036; stroke-width: 1.0;" width="10" x="446" y="195.1797"/><rect fill="#FFFFFF" filter="url(#fst2xk8)" height="30.3516" style="stroke: #A80036; stroke-width: 1.0;" width="10" x="551.5" y="255.8828"/><polygon fill="#A80036" points="118,67.6094,128,71.6094,118,75.6094,122,71.6094" style="stroke: #A80036; stroke-width: 1.0;"/><line style="stroke: #A80036; stroke-width: 1.0;" x1="3" x2="124" y1="71.6094" y2="71.6094"/><text fill="#000000" font-family="sans-serif" font-size="13" lengthAdjust="spacingAndGlyphs" textLength="108" x="10" y="67.1045">computePlanning()</text><polygon fill="#A80036" points="386,97.9609,396,101.9609,386,105.9609,390,101.9609" style="stroke: #A80036; stroke-width: 1.0;"/><line style="stroke: #A80036; stroke-width: 1.0;" x1="140" x2="392" y1="101.9609" y2="101.9609"/><text fill="#000000" font-family="sans-serif" font-size="13" lengthAdjust="spacingAndGlyphs" textLength="204" x="147" y="97.4561">&lt;&lt;create(GraphFactoryStrategy)&gt;&gt;</text><rect fill="#FEFECE" filter="url(#fst2xk8)" height="31.6094" style="stroke: #A80036; stroke-width: 1.5;" width="102" x="398" y="79.9609"/><text fill="#000000" font-family="sans-serif" font-size="14" lengthAdjust="spacingAndGlyphs" textLength="88" x="405" y="101.4941">GraphFactory</text><polygon fill="#A80036" points="502,144.5703,512,148.5703,502,152.5703,506,148.5703" style="stroke: #A80036; stroke-width: 1.0;"/><line style="stroke: #A80036; stroke-width: 1.0;" x1="140" x2="508" y1="148.5703" y2="148.5703"/><text fill="#000000" font-family="sans-serif" font-size="13" lengthAdjust="spacingAndGlyphs" textLength="260" x="147" y="144.0654">&lt;&lt;create(BranchStrategy, BoundStrategy)&gt;&gt;</text><rect fill="#FEFECE" filter="url(#fst2xk8)" height="31.6094" style="stroke: #A80036; stroke-width: 1.5;" width="81" x="514" y="126.5703"/><text fill="#000000" font-family="sans-serif" font-size="14" lengthAdjust="spacingAndGlyphs" textLength="67" x="521" y="148.1035">TSPSolver</text><polygon fill="#A80036" points="434,191.1797,444,195.1797,434,199.1797,438,195.1797" style="stroke: #A80036; stroke-width: 1.0;"/><line style="stroke: #A80036; stroke-width: 1.0;" x1="140" x2="440" y1="195.1797" y2="195.1797"/><text fill="#000000" font-family="sans-serif" font-size="13" lengthAdjust="spacingAndGlyphs" textLength="287" x="147" y="190.6748">computeDeliveryGraph(CityMap, DeliveryRequest)</text><line style="stroke: #A80036; stroke-width: 1.0;" x1="140" x2="150" y1="225.5313" y2="221.5313"/><line style="stroke: #A80036; stroke-width: 1.0;" x1="140" x2="150" y1="225.5313" y2="229.5313"/><line style="stroke: #A80036; stroke-width: 1.0; stroke-dasharray: 2.0,2.0;" x1="140" x2="450" y1="225.5313" y2="225.5313"/><text fill="#000000" font-family="sans-serif" font-size="13" lengthAdjust="spacingAndGlyphs" textLength="166" x="157" y="221.0264">deliveryGraph: DeliveryGraph</text><polygon fill="#A80036" points="539.5,251.8828,549.5,255.8828,539.5,259.8828,543.5,255.8828" style="stroke: #A80036; stroke-width: 1.0;"/><line style="stroke: #A80036; stroke-width: 1.0;" x1="140" x2="545.5" y1="255.8828" y2="255.8828"/><text fill="#000000" font-family="sans-serif" font-size="13" lengthAdjust="spacingAndGlyphs" textLength="287" x="147" y="251.3779">computePlanning(deliveryGraph, DeliveryRequest)</text><line style="stroke: #A80036; stroke-width: 1.0;" x1="140" x2="150" y1="286.2344" y2="282.2344"/><line style="stroke: #A80036; stroke-width: 1.0;" x1="140" x2="150" y1="286.2344" y2="290.2344"/><line style="stroke: #A80036; stroke-width: 1.0; stroke-dasharray: 2.0,2.0;" x1="140" x2="555.5" y1="286.2344" y2="286.2344"/><text fill="#000000" font-family="sans-serif" font-size="13" lengthAdjust="spacingAndGlyphs" textLength="50" x="157" y="281.7295">Planning</text><line style="stroke: #A80036; stroke-width: 1.0;" x1="145" x2="187" y1="316.9375" y2="316.9375"/><line style="stroke: #A80036; stroke-width: 1.0;" x1="187" x2="187" y1="316.9375" y2="329.9375"/><line style="stroke: #A80036; stroke-width: 1.0;" x1="146" x2="187" y1="329.9375" y2="329.9375"/><polygon fill="#A80036" points="156,325.9375,146,329.9375,156,333.9375,152,329.9375" style="stroke: #A80036; stroke-width: 1.0;"/><text fill="#000000" font-family="sans-serif" font-size="13" lengthAdjust="spacingAndGlyphs" textLength="168" x="152" y="312.0811">setCurrentPlanning(Planning)</text></g></svg>