<?xml version="1.0" encoding="UTF-8" standalone="no"?><svg xmlns="http://www.w3.org/2000/svg" xmlns:xlink="http://www.w3.org/1999/xlink" contentScriptType="application/ecmascript" contentStyleType="text/css" height="538px" preserveAspectRatio="none" style="width:917px;height:538px;" version="1.1" viewBox="0 0 917 538" width="917px" zoomAndPan="magnify"><defs><filter height="300%" id="fzcxgkg" width="300%" x="-1" y="-1"><feGaussianBlur result="blurOut" stdDeviation="2.0"/><feColorMatrix in="blurOut" result="blurOut2" type="matrix" values="0 0 0 0 0 0 0 0 0 0 0 0 0 0 0 0 0 0 .4 0"/><feOffset dx="4.0" dy="4.0" in="blurOut2" result="blurOut3"/><feBlend in="SourceGraphic" in2="blurOut3" mode="normal"/></filter></defs><g><rect fill="#FFFFFF" filter="url(#fzcxgkg)" height="402.3828" style="stroke: #A80036; stroke-width: 1.0;" width="10" x="130" y="71.6094"/><rect fill="#FFFFFF" filter="url(#fzcxgkg)" height="28" style="stroke: #A80036; stroke-width: 1.0;" width="10" x="135" y="445.9922"/><rect fill="#FFFFFF" filter="url(#fzcxgkg)" height="151.7578" style="stroke: #A80036; stroke-width: 1.0;" width="10" x="486" y="195.1797"/><rect fill="#FFFFFF" filter="url(#fzcxgkg)" height="30.3516" style="stroke: #A80036; stroke-width: 1.0;" width="10" x="591.5" y="377.2891"/><rect fill="#FFFFFF" filter="url(#fzcxgkg)" height="30.3516" style="stroke: #A80036; stroke-width: 1.0;" width="10" x="821" y="225.5313"/><rect fill="#FFFFFF" filter="url(#fzcxgkg)" height="30.3516" style="stroke: #A80036; stroke-width: 1.0;" width="10" x="821" y="286.2344"/><rect fill="#FEFECE" filter="url(#fzcxgkg)" height="31.6094" style="stroke: #A80036; stroke-width: 1.5;" width="102" x="438" y="79.9609"/><text fill="#000000" font-family="sans-serif" font-size="14" lengthAdjust="spacingAndGlyphs" textLength="88" x="445" y="101.4941">GraphFactory</text><rect fill="#FEFECE" filter="url(#fzcxgkg)" height="31.6094" style="stroke: #A80036; stroke-width: 1.5;" width="81" x="554" y="126.5703"/><text fill="#000000" font-family="sans-serif" font-size="14" lengthAdjust="spacingAndGlyphs" textLength="67" x="561" y="148.1035">TSPSolver</text><line style="stroke: #A80036; stroke-width: 1.0; stroke-dasharray: 5.0,5.0;" x1="135" x2="135" y1="39.6094" y2="499.3438"/><line style="stroke: #A80036; stroke-width: 1.0; stroke-dasharray: 5.0,5.0;" x1="491" x2="491" y1="113.2656" y2="499.3438"/><line style="stroke: #A80036; stroke-width: 1.0; stroke-dasharray: 5.0,5.0;" x1="596" x2="596" y1="159.875" y2="499.3438"/><line style="stroke: #A80036; stroke-width: 1.0; stroke-dasharray: 5.0,5.0;" x1="825.5" x2="825.5" y1="39.6094" y2="499.3438"/><rect fill="#FEFECE" filter="url(#fzcxgkg)" height="31.6094" style="stroke: #A80036; stroke-width: 1.5;" width="76" x="95" y="3"/><text fill="#000000" font-family="sans-serif" font-size="14" lengthAdjust="spacingAndGlyphs" textLength="62" x="102" y="24.5332">Controller</text><rect fill="#FEFECE" filter="url(#fzcxgkg)" height="31.6094" style="stroke: #A80036; stroke-width: 1.5;" width="76" x="95" y="498.3438"/><text fill="#000000" font-family="sans-serif" font-size="14" lengthAdjust="spacingAndGlyphs" textLength="62" x="102" y="519.877">Controller</text><rect fill="#FEFECE" filter="url(#fzcxgkg)" height="31.6094" style="stroke: #A80036; stroke-width: 1.5;" width="102" x="438" y="498.3438"/><text fill="#000000" font-family="sans-serif" font-size="14" lengthAdjust="spacingAndGlyphs" textLength="88" x="445" y="519.877">GraphFactory</text><rect fill="#FEFECE" filter="url(#fzcxgkg)" height="31.6094" style="stroke: #A80036; stroke-width: 1.5;" width="81" x="554" y="498.3438"/><text fill="#000000" font-family="sans-serif" font-size="14" lengthAdjust="spacingAndGlyphs" textLength="67" x="561" y="519.877">TSPSolver</text><rect fill="#FEFECE" filter="url(#fzcxgkg)" height="31.6094" style="stroke: #A80036; stroke-width: 1.5;" width="169" x="739.5" y="3"/><text fill="#000000" font-family="sans-serif" font-size="14" lengthAdjust="spacingAndGlyphs" textLength="155" x="746.5" y="24.5332">currentCityMap: CityMap</text><rect fill="#FEFECE" filter="url(#fzcxgkg)" height="31.6094" style="stroke: #A80036; stroke-width: 1.5;" width="169" x="739.5" y="498.3438"/><text fill="#000000" font-family="sans-serif" font-size="14" lengthAdjust="spacingAndGlyphs" textLength="155" x="746.5" y="519.877">currentCityMap: CityMap</text><rect fill="#FFFFFF" filter="url(#fzcxgkg)" height="402.3828" style="stroke: #A80036; stroke-width: 1.0;" width="10" x="130" y="71.6094"/><rect fill="#FFFFFF" filter="url(#fzcxgkg)" height="28" style="stroke: #A80036; stroke-width: 1.0;" width="10" x="135" y="445.9922"/><rect fill="#FFFFFF" filter="url(#fzcxgkg)" height="151.7578" style="stroke: #A80036; stroke-width: 1.0;" width="10" x="486" y="195.1797"/><rect fill="#FFFFFF" filter="url(#fzcxgkg)" height="30.3516" style="stroke: #A80036; stroke-width: 1.0;" width="10" x="591.5" y="377.2891"/><rect fill="#FFFFFF" filter="url(#fzcxgkg)" height="30.3516" style="stroke: #A80036; stroke-width: 1.0;" width="10" x="821" y="225.5313"/><rect fill="#FFFFFF" filter="url(#fzcxgkg)" height="30.3516" style="stroke: #A80036; stroke-width: 1.0;" width="10" x="821" y="286.2344"/><polygon fill="#A80036" points="118,67.6094,128,71.6094,118,75.6094,122,71.6094" style="stroke: #A80036; stroke-width: 1.0;"/><line style="stroke: #A80036; stroke-width: 1.0;" x1="3" x2="124" y1="71.6094" y2="71.6094"/><text fill="#000000" font-family="sans-serif" font-size="13" lengthAdjust="spacingAndGlyphs" textLength="108" x="10" y="67.1045">computePlanning()</text><polygon fill="#A80036" points="426,97.9609,436,101.9609,426,105.9609,430,101.9609" style="stroke: #A80036; stroke-width: 1.0;"/><line style="stroke: #A80036; stroke-width: 1.0;" x1="140" x2="432" y1="101.9609" y2="101.9609"/><text fill="#000000" font-family="sans-serif" font-size="13" lengthAdjust="spacingAndGlyphs" textLength="204" x="147" y="97.4561">&lt;&lt;create(GraphFactoryStrategy)&gt;&gt;</text><rect fill="#FEFECE" filter="url(#fzcxgkg)" height="31.6094" style="stroke: #A80036; stroke-width: 1.5;" width="102" x="438" y="79.9609"/><text fill="#000000" font-family="sans-serif" font-size="14" lengthAdjust="spacingAndGlyphs" textLength="88" x="445" y="101.4941">GraphFactory</text><polygon fill="#A80036" points="542,144.5703,552,148.5703,542,152.5703,546,148.5703" style="stroke: #A80036; stroke-width: 1.0;"/><line style="stroke: #A80036; stroke-width: 1.0;" x1="140" x2="548" y1="148.5703" y2="148.5703"/><text fill="#000000" font-family="sans-serif" font-size="13" lengthAdjust="spacingAndGlyphs" textLength="260" x="147" y="144.0654">&lt;&lt;create(BranchStrategy, BoundStrategy)&gt;&gt;</text><rect fill="#FEFECE" filter="url(#fzcxgkg)" height="31.6094" style="stroke: #A80036; stroke-width: 1.5;" width="81" x="554" y="126.5703"/><text fill="#000000" font-family="sans-serif" font-size="14" lengthAdjust="spacingAndGlyphs" textLength="67" x="561" y="148.1035">TSPSolver</text><polygon fill="#A80036" points="474,191.1797,484,195.1797,474,199.1797,478,195.1797" style="stroke: #A80036; stroke-width: 1.0;"/><line style="stroke: #A80036; stroke-width: 1.0;" x1="140" x2="480" y1="195.1797" y2="195.1797"/><text fill="#000000" font-family="sans-serif" font-size="13" lengthAdjust="spacingAndGlyphs" textLength="327" x="147" y="190.6748">computeDeliveryGraph(currentCityMap, DeliveryRequest)</text><polygon fill="#A80036" points="809,221.5313,819,225.5313,809,229.5313,813,225.5313" style="stroke: #A80036; stroke-width: 1.0;"/><line style="stroke: #A80036; stroke-width: 1.0;" x1="496" x2="815" y1="225.5313" y2="225.5313"/><text fill="#000000" font-family="sans-serif" font-size="13" lengthAdjust="spacingAndGlyphs" textLength="100" x="503" y="221.0264">getIntersections()</text><line style="stroke: #A80036; stroke-width: 1.0;" x1="496" x2="506" y1="255.8828" y2="251.8828"/><line style="stroke: #A80036; stroke-width: 1.0;" x1="496" x2="506" y1="255.8828" y2="259.8828"/><line style="stroke: #A80036; stroke-width: 1.0; stroke-dasharray: 2.0,2.0;" x1="496" x2="825" y1="255.8828" y2="255.8828"/><text fill="#000000" font-family="sans-serif" font-size="13" lengthAdjust="spacingAndGlyphs" textLength="212" x="513" y="251.3779">intersactions: Map&lt;int, Intersection&gt;</text><polygon fill="#A80036" points="809,282.2344,819,286.2344,809,290.2344,813,286.2344" style="stroke: #A80036; stroke-width: 1.0;"/><line style="stroke: #A80036; stroke-width: 1.0;" x1="496" x2="815" y1="286.2344" y2="286.2344"/><text fill="#000000" font-family="sans-serif" font-size="13" lengthAdjust="spacingAndGlyphs" textLength="112" x="503" y="281.7295">getStreetSections()</text><line style="stroke: #A80036; stroke-width: 1.0;" x1="496" x2="506" y1="316.5859" y2="312.5859"/><line style="stroke: #A80036; stroke-width: 1.0;" x1="496" x2="506" y1="316.5859" y2="320.5859"/><line style="stroke: #A80036; stroke-width: 1.0; stroke-dasharray: 2.0,2.0;" x1="496" x2="825" y1="316.5859" y2="316.5859"/><text fill="#000000" font-family="sans-serif" font-size="13" lengthAdjust="spacingAndGlyphs" textLength="301" x="513" y="312.0811">streetSections: Map&lt;int,  Map&lt;int, StreetSection&gt;&gt;</text><line style="stroke: #A80036; stroke-width: 1.0;" x1="140" x2="150" y1="346.9375" y2="342.9375"/><line style="stroke: #A80036; stroke-width: 1.0;" x1="140" x2="150" y1="346.9375" y2="350.9375"/><line style="stroke: #A80036; stroke-width: 1.0; stroke-dasharray: 2.0,2.0;" x1="140" x2="490" y1="346.9375" y2="346.9375"/><text fill="#000000" font-family="sans-serif" font-size="13" lengthAdjust="spacingAndGlyphs" textLength="166" x="157" y="342.4326">deliveryGraph: DeliveryGraph</text><polygon fill="#A80036" points="579.5,373.2891,589.5,377.2891,579.5,381.2891,583.5,377.2891" style="stroke: #A80036; stroke-width: 1.0;"/><line style="stroke: #A80036; stroke-width: 1.0;" x1="140" x2="585.5" y1="377.2891" y2="377.2891"/><text fill="#000000" font-family="sans-serif" font-size="13" lengthAdjust="spacingAndGlyphs" textLength="287" x="147" y="372.7842">computePlanning(deliveryGraph, DeliveryRequest)</text><line style="stroke: #A80036; stroke-width: 1.0;" x1="140" x2="150" y1="407.6406" y2="403.6406"/><line style="stroke: #A80036; stroke-width: 1.0;" x1="140" x2="150" y1="407.6406" y2="411.6406"/><line style="stroke: #A80036; stroke-width: 1.0; stroke-dasharray: 2.0,2.0;" x1="140" x2="595.5" y1="407.6406" y2="407.6406"/><text fill="#000000" font-family="sans-serif" font-size="13" lengthAdjust="spacingAndGlyphs" textLength="50" x="157" y="403.1357">Planning</text><line style="stroke: #A80036; stroke-width: 1.0;" x1="145" x2="187" y1="438.3438" y2="438.3438"/><line style="stroke: #A80036; stroke-width: 1.0;" x1="187" x2="187" y1="438.3438" y2="451.3438"/><line style="stroke: #A80036; stroke-width: 1.0;" x1="146" x2="187" y1="451.3438" y2="451.3438"/><polygon fill="#A80036" points="156,447.3438,146,451.3438,156,455.3438,152,451.3438" style="stroke: #A80036; stroke-width: 1.0;"/><text fill="#000000" font-family="sans-serif" font-size="13" lengthAdjust="spacingAndGlyphs" textLength="168" x="152" y="433.4873">setCurrentPlanning(Planning)</text></g></svg>