<?xml version="1.0" encoding="UTF-8" standalone="no"?><svg xmlns="http://www.w3.org/2000/svg" xmlns:xlink="http://www.w3.org/1999/xlink" contentScriptType="application/ecmascript" contentStyleType="text/css" height="592px" preserveAspectRatio="none" style="width:1233px;height:592px;" version="1.1" viewBox="0 0 1233 592" width="1233px" zoomAndPan="magnify"><defs><filter height="300%" id="f9bpdmo" width="300%" x="-1" y="-1"><feGaussianBlur result="blurOut" stdDeviation="2.0"/><feColorMatrix in="blurOut" result="blurOut2" type="matrix" values="0 0 0 0 0 0 0 0 0 0 0 0 0 0 0 0 0 0 .4 0"/><feOffset dx="4.0" dy="4.0" in="blurOut2" result="blurOut3"/><feBlend in="SourceGraphic" in2="blurOut3" mode="normal"/></filter></defs><g><rect fill="#FEFECE" filter="url(#f9bpdmo)" height="35.0938" style="stroke: #A80036; stroke-width: 1.5;" width="37" x="123.032" y="278"/><text fill="#000000" font-family="sans-serif" font-size="12" lengthAdjust="spacingAndGlyphs" textLength="23" x="130.032" y="292.457">Rue</text><line style="stroke: #A80036; stroke-width: 1.5;" x1="124.032" x2="159.032" y1="297.0938" y2="297.0938"/><rect fill="#FEFECE" filter="url(#f9bpdmo)" height="35.0938" style="stroke: #A80036; stroke-width: 1.5;" width="59" x="272.032" y="143"/><text fill="#000000" font-family="sans-serif" font-size="12" lengthAdjust="spacingAndGlyphs" textLength="45" x="279.032" y="157.457">Tronçon</text><line style="stroke: #A80036; stroke-width: 1.5;" x1="273.032" x2="330.032" y1="162.0938" y2="162.0938"/><rect fill="#FEFECE" filter="url(#f9bpdmo)" height="35.0938" style="stroke: #A80036; stroke-width: 1.5;" width="39" x="416.032" y="8"/><text fill="#000000" font-family="sans-serif" font-size="12" lengthAdjust="spacingAndGlyphs" textLength="25" x="423.032" y="22.457">Plan</text><line style="stroke: #A80036; stroke-width: 1.5;" x1="417.032" x2="454.032" y1="27.0938" y2="27.0938"/><rect fill="#FEFECE" filter="url(#f9bpdmo)" height="35.0938" style="stroke: #A80036; stroke-width: 1.5;" width="78" x="531.532" y="143"/><text fill="#000000" font-family="sans-serif" font-size="12" lengthAdjust="spacingAndGlyphs" textLength="64" x="538.532" y="157.457">Intersection</text><line style="stroke: #A80036; stroke-width: 1.5;" x1="532.532" x2="608.532" y1="162.0938" y2="162.0938"/><rect fill="#FEFECE" filter="url(#f9bpdmo)" height="35.0938" style="stroke: #A80036; stroke-width: 1.5;" width="60" x="485.532" y="413"/><text fill="#000000" font-family="sans-serif" font-size="12" lengthAdjust="spacingAndGlyphs" textLength="46" x="492.532" y="427.457">Entrepôt</text><line style="stroke: #A80036; stroke-width: 1.5;" x1="486.532" x2="544.532" y1="432.0938" y2="432.0938"/><rect fill="#FEFECE" filter="url(#f9bpdmo)" height="35.0938" style="stroke: #A80036; stroke-width: 1.5;" width="121" x="1078.03" y="548"/><text fill="#000000" font-family="sans-serif" font-size="12" lengthAdjust="spacingAndGlyphs" textLength="107" x="1085.03" y="562.457">HoraireDePassage</text><line style="stroke: #A80036; stroke-width: 1.5;" x1="1079.03" x2="1198.03" y1="567.0938" y2="567.0938"/><rect fill="#FEFECE" filter="url(#f9bpdmo)" height="35.0938" style="stroke: #A80036; stroke-width: 1.5;" width="60" x="800.532" y="413"/><text fill="#000000" font-family="sans-serif" font-size="12" lengthAdjust="spacingAndGlyphs" textLength="46" x="807.532" y="427.457">Tournée</text><line style="stroke: #A80036; stroke-width: 1.5;" x1="801.532" x2="859.532" y1="432.0938" y2="432.0938"/><rect fill="#FEFECE" filter="url(#f9bpdmo)" height="35.0938" style="stroke: #A80036; stroke-width: 1.5;" width="126" x="1098.53" y="278"/><text fill="#000000" font-family="sans-serif" font-size="12" lengthAdjust="spacingAndGlyphs" textLength="112" x="1105.53" y="292.457">AdresseDeLivraison</text><line style="stroke: #A80036; stroke-width: 1.5;" x1="1099.53" x2="1223.53" y1="297.0938" y2="297.0938"/><rect fill="#FEFECE" filter="url(#f9bpdmo)" height="35.0938" style="stroke: #A80036; stroke-width: 1.5;" width="45" x="180.032" y="548"/><text fill="#000000" font-family="sans-serif" font-size="12" lengthAdjust="spacingAndGlyphs" textLength="31" x="187.032" y="562.457">Trajet</text><line style="stroke: #A80036; stroke-width: 1.5;" x1="181.032" x2="224.032" y1="567.0938" y2="567.0938"/><rect fill="#FEFECE" filter="url(#f9bpdmo)" height="35.0938" style="stroke: #A80036; stroke-width: 1.5;" width="51" x="805.032" y="548"/><text fill="#000000" font-family="sans-serif" font-size="12" lengthAdjust="spacingAndGlyphs" textLength="37" x="812.032" y="562.457">Livreur</text><line style="stroke: #A80036; stroke-width: 1.5;" x1="806.032" x2="855.032" y1="567.0938" y2="567.0938"/><rect fill="#FEFECE" filter="url(#f9bpdmo)" height="35.0938" style="stroke: #A80036; stroke-width: 1.5;" width="135" x="763.032" y="278"/><text fill="#000000" font-family="sans-serif" font-size="12" lengthAdjust="spacingAndGlyphs" textLength="121" x="770.032" y="292.457">DemandeDeLivraison</text><line style="stroke: #A80036; stroke-width: 1.5;" x1="764.032" x2="897.032" y1="297.0938" y2="297.0938"/><path d="M860.625,444.495 C916.934,468.81 1038.12,521.1421 1100.19,547.9432 " fill="none" style="stroke: #A80036; stroke-width: 1.0;"/><text fill="#000000" font-family="sans-serif" font-size="13" lengthAdjust="spacingAndGlyphs" textLength="18" x="868.6879" y="443.2532">0,n</text><text fill="#000000" font-family="sans-serif" font-size="13" lengthAdjust="spacingAndGlyphs" textLength="18" x="1066.5086" y="537.0153">0,n</text><path d="M1120.28,313.076 C1052.69,340.233 919.954,393.569 860.533,417.445 " fill="none" style="stroke: #A80036; stroke-width: 1.0;"/><text fill="#000000" font-family="sans-serif" font-size="13" lengthAdjust="spacingAndGlyphs" textLength="18" x="1086.8909" y="334.4432">0,n</text><text fill="#000000" font-family="sans-serif" font-size="13" lengthAdjust="spacingAndGlyphs" textLength="18" x="868.577" y="410.6241">0,n</text><path d="M800.242,437.915 C691.335,460.98 321.027,539.4047 225.28,559.6823 " fill="none" style="stroke: #A80036; stroke-width: 1.0;"/><text fill="#000000" font-family="sans-serif" font-size="13" lengthAdjust="spacingAndGlyphs" textLength="18" x="774.5068" y="435.3203">0,n</text><text fill="#000000" font-family="sans-serif" font-size="13" lengthAdjust="spacingAndGlyphs" textLength="18" x="233.0186" y="553.8408">0,n</text><path d="M830.532,448.076 C830.532,473.562 830.532,522.1038 830.532,547.7155 " fill="none" style="stroke: #A80036; stroke-width: 1.0;"/><text fill="#000000" font-family="sans-serif" font-size="13" lengthAdjust="spacingAndGlyphs" textLength="18" x="809.7758" y="469.4432">0,n</text><text fill="#000000" font-family="sans-serif" font-size="13" lengthAdjust="spacingAndGlyphs" textLength="7" x="822.4164" y="537.0329">1</text><path d="M830.532,412.715 C830.532,387.104 830.532,338.562 830.532,313.076 " fill="none" style="stroke: #A80036; stroke-width: 1.0;"/><text fill="#000000" font-family="sans-serif" font-size="13" lengthAdjust="spacingAndGlyphs" textLength="18" x="809.6633" y="402.0322">1,n</text><text fill="#000000" font-family="sans-serif" font-size="13" lengthAdjust="spacingAndGlyphs" textLength="61" x="839.8726" y="334.4432">1 (précise)</text><path d="M452.357,43.076 C478.226,68.562 527.498,117.104 553.495,142.715 " fill="none" style="stroke: #A80036; stroke-width: 1.0;"/><text fill="#000000" font-family="sans-serif" font-size="13" lengthAdjust="spacingAndGlyphs" textLength="7" x="449.4378" y="64.4432">1</text><text fill="#000000" font-family="sans-serif" font-size="13" lengthAdjust="spacingAndGlyphs" textLength="18" x="527.1957" y="132.0322">0,n</text><path d="M418.832,43.076 C393.154,68.562 344.247,117.104 318.443,142.715 " fill="none" style="stroke: #A80036; stroke-width: 1.0;"/><text fill="#000000" font-family="sans-serif" font-size="13" lengthAdjust="spacingAndGlyphs" textLength="7" x="405.6458" y="64.4432">1</text><text fill="#000000" font-family="sans-serif" font-size="13" lengthAdjust="spacingAndGlyphs" textLength="18" x="302.9646" y="132.0322">0,n</text><path d="M331.216,165.654 C397.901,175.796 464.585,176.26 531.269,167.044 " fill="none" style="stroke: #A80036; stroke-width: 1.0;"/><text fill="#000000" font-family="sans-serif" font-size="13" lengthAdjust="spacingAndGlyphs" textLength="72" x="339.2212" y="162.818">1,n (Sortant)</text><text fill="#000000" font-family="sans-serif" font-size="13" lengthAdjust="spacingAndGlyphs" textLength="56" x="467.4917" y="164.3857">1 (arrivée)</text><path d="M331.216,155.346 C397.901,145.204 464.585,144.74 531.269,153.956 " fill="none" style="stroke: #A80036; stroke-width: 1.0;"/><text fill="#000000" font-family="sans-serif" font-size="13" lengthAdjust="spacingAndGlyphs" textLength="72" x="339.2212" y="151.2537">1,n (Entrant)</text><text fill="#000000" font-family="sans-serif" font-size="13" lengthAdjust="spacingAndGlyphs" textLength="55" x="468.5495" y="149.7844">1 (départ)</text><path d="M314.919,178.265 C353.35,226.394 463.725,364.62 502.15,412.742 " fill="none" style="stroke: #A80036; stroke-width: 1.0;"/><text fill="#000000" font-family="sans-serif" font-size="13" lengthAdjust="spacingAndGlyphs" textLength="47" x="326.2156" y="199.6901">1 (situe)</text><text fill="#000000" font-family="sans-serif" font-size="13" lengthAdjust="spacingAndGlyphs" textLength="18" x="477.0157" y="402.0678">0,1</text><path d="M281.591,178.076 C250.428,203.98 190.613,253.702 160.231,278.956 " fill="none" style="stroke: #A80036; stroke-width: 1.0;"/><text fill="#000000" font-family="sans-serif" font-size="13" lengthAdjust="spacingAndGlyphs" textLength="18" x="254.7278" y="199.4432">1,n</text><text fill="#000000" font-family="sans-serif" font-size="13" lengthAdjust="spacingAndGlyphs" textLength="7" x="168.1394" y="267.7532">1</text><path d="M271.682,163.634 C212.133,169.69 79.4222,192.594 22.5319,278 C-45.5298,380.177 117.514,506.4758 179.676,549.4072 " fill="none" style="stroke: #A80036; stroke-width: 1.0;"/><text fill="#000000" font-family="sans-serif" font-size="13" lengthAdjust="spacingAndGlyphs" textLength="79" x="185.0968" y="160.611">0,n (contigüs)</text><text fill="#000000" font-family="sans-serif" font-size="13" lengthAdjust="spacingAndGlyphs" textLength="18" x="153.9111" y="541.0611">0,n</text><path d="M898.09,295.5 C964.893,295.5 1031.7,295.5 1098.5,295.5 " fill="none" style="stroke: #A80036; stroke-width: 1.0;"/><text fill="#000000" font-family="sans-serif" font-size="13" lengthAdjust="spacingAndGlyphs" textLength="18" x="905.985" y="292.1834">0,n</text><text fill="#000000" font-family="sans-serif" font-size="13" lengthAdjust="spacingAndGlyphs" textLength="81" x="1009.5735" y="309.6175">0,n (doit livrer)</text><path d="M791.274,313.076 C727.613,339.955 603.216,392.478 545.845,416.701 " fill="none" style="stroke: #A80036; stroke-width: 1.0;"/><text fill="#000000" font-family="sans-serif" font-size="13" lengthAdjust="spacingAndGlyphs" textLength="18" x="758.495" y="334.4432">0,n</text><text fill="#000000" font-family="sans-serif" font-size="13" lengthAdjust="spacingAndGlyphs" textLength="68" x="553.6831" y="411.5551">1 (début/fin)</text><path d="M609.767,170.33 C709.925,192.869 975.77,252.696 1098.19,280.246 " fill="none" style="stroke: #A80036; stroke-width: 1.0;"/><text fill="#000000" font-family="sans-serif" font-size="13" lengthAdjust="spacingAndGlyphs" textLength="47" x="617.4128" y="168.0639">1 (situe)</text><text fill="#000000" font-family="sans-serif" font-size="13" lengthAdjust="spacingAndGlyphs" textLength="18" x="1072.7299" y="275.3563">0,1</text><path d="M1139.97,547.7417 C1144.1,499.6205 1155.96,361.394 1160.09,313.265 " fill="none" style="stroke: #A80036; stroke-width: 1.0;"/><text fill="#000000" font-family="sans-serif" font-size="13" lengthAdjust="spacingAndGlyphs" textLength="18" x="1119.5603" y="537.0674">0,n</text><text fill="#000000" font-family="sans-serif" font-size="13" lengthAdjust="spacingAndGlyphs" textLength="7" x="1151.5771" y="334.6901">1</text></g></svg>