<?xml version="1.0" encoding="UTF-8" standalone="no"?><svg xmlns="http://www.w3.org/2000/svg" xmlns:xlink="http://www.w3.org/1999/xlink" contentScriptType="application/ecmascript" contentStyleType="text/css" height="660px" preserveAspectRatio="none" style="width:633px;height:660px;" version="1.1" viewBox="0 0 633 660" width="633px" zoomAndPan="magnify"><defs><filter height="300%" id="fnk555y" width="300%" x="-1" y="-1"><feGaussianBlur result="blurOut" stdDeviation="2.0"/><feColorMatrix in="blurOut" result="blurOut2" type="matrix" values="0 0 0 0 0 0 0 0 0 0 0 0 0 0 0 0 0 0 .4 0"/><feOffset dx="4.0" dy="4.0" in="blurOut2" result="blurOut3"/><feBlend in="SourceGraphic" in2="blurOut3" mode="normal"/></filter></defs><g><ellipse cx="440.623" cy="18" fill="#000000" filter="url(#fnk555y)" rx="10" ry="10" style="stroke: none; stroke-width: 1.0;"/><rect fill="#FEFECE" filter="url(#fnk555y)" height="50" rx="12.5" ry="12.5" style="stroke: #A80036; stroke-width: 1.5;" width="50" x="415.623" y="89"/><line style="stroke: #A80036; stroke-width: 1.5;" x1="415.623" x2="465.623" y1="116.6094" y2="116.6094"/><text fill="#000000" font-family="sans-serif" font-size="14" lengthAdjust="spacingAndGlyphs" textLength="18" x="431.623" y="108.5332">Init</text><rect fill="#FEFECE" filter="url(#fnk555y)" height="50" rx="12.5" ry="12.5" style="stroke: #A80036; stroke-width: 1.5;" width="133" x="374.123" y="217"/><line style="stroke: #A80036; stroke-width: 1.5;" x1="374.123" x2="507.123" y1="244.6094" y2="244.6094"/><text fill="#000000" font-family="sans-serif" font-size="14" lengthAdjust="spacingAndGlyphs" textLength="113" x="384.123" y="236.5332">LoadedStreetMap</text><rect fill="#FEFECE" filter="url(#fnk555y)" height="50" rx="12.5" ry="12.5" style="stroke: #A80036; stroke-width: 1.5;" width="121" x="266.123" y="345"/><line style="stroke: #A80036; stroke-width: 1.5;" x1="266.123" x2="387.123" y1="372.6094" y2="372.6094"/><text fill="#000000" font-family="sans-serif" font-size="14" lengthAdjust="spacingAndGlyphs" textLength="101" x="276.123" y="364.5332">LoadedRequest</text><rect fill="#FEFECE" filter="url(#fnk555y)" height="50" rx="12.5" ry="12.5" style="stroke: #A80036; stroke-width: 1.5;" width="106" x="169.623" y="473"/><line style="stroke: #A80036; stroke-width: 1.5;" x1="169.623" x2="275.623" y1="500.6094" y2="500.6094"/><text fill="#000000" font-family="sans-serif" font-size="14" lengthAdjust="spacingAndGlyphs" textLength="86" x="179.623" y="492.5332">ComputePath</text><rect fill="#FEFECE" filter="url(#fnk555y)" height="50" rx="12.5" ry="12.5" style="stroke: #A80036; stroke-width: 1.5;" width="114" x="405.623" y="601"/><line style="stroke: #A80036; stroke-width: 1.5;" x1="405.623" x2="519.623" y1="628.6094" y2="628.6094"/><text fill="#000000" font-family="sans-serif" font-size="14" lengthAdjust="spacingAndGlyphs" textLength="94" x="415.623" y="620.5332">ComputedPath</text><path d="M440.623,28.013 C440.623,40.698 440.623,64.409 440.623,83.57 " fill="none" style="stroke: #A80036; stroke-width: 1.0;"/><polygon fill="#A80036" points="440.623,88.84,444.623,79.84,440.623,83.84,436.623,79.84,440.623,88.84" style="stroke: #A80036; stroke-width: 1.0;"/><path d="M440.623,139.294 C440.623,159.95 440.623,189.669 440.623,211.651 " fill="none" style="stroke: #A80036; stroke-width: 1.0;"/><polygon fill="#A80036" points="440.623,216.781,444.623,207.781,440.623,211.781,436.623,207.781,440.623,216.781" style="stroke: #A80036; stroke-width: 1.0;"/><text fill="#000000" font-family="sans-serif" font-size="13" lengthAdjust="spacingAndGlyphs" textLength="84" x="441.623" y="183.4951">loadStreetMap</text><path d="M373.9,258.841 C354.344,266.919 335.138,279.004 323.623,297 C315.636,309.483 315.683,325.829 318.039,339.791 " fill="none" style="stroke: #A80036; stroke-width: 1.0;"/><polygon fill="#A80036" points="319.001,344.815,321.2374,335.2234,318.0608,339.9042,313.3801,336.7277,319.001,344.815" style="stroke: #A80036; stroke-width: 1.0;"/><text fill="#000000" font-family="sans-serif" font-size="13" lengthAdjust="spacingAndGlyphs" textLength="72" x="324.623" y="311.4951">loadRequest</text><path d="M367.133,344.826 C379.173,336.392 391.766,326.202 401.623,315 C412.845,302.247 422.088,285.713 428.754,271.705 " fill="none" style="stroke: #A80036; stroke-width: 1.0;"/><polygon fill="#A80036" points="430.915,267.061,423.4906,273.5323,428.805,271.594,430.7433,276.9084,430.915,267.061" style="stroke: #A80036; stroke-width: 1.0;"/><text fill="#000000" font-family="sans-serif" font-size="13" lengthAdjust="spacingAndGlyphs" textLength="84" x="416.623" y="311.4951">loadStreetMap</text><path d="M266.005,372.605 C184.726,376.183 46.9787,387.731 15.6235,425 C-27.9139,476.748 88.7802,491.347 164.202,495.436 " fill="none" style="stroke: #A80036; stroke-width: 1.0;"/><polygon fill="#A80036" points="169.558,495.713,160.7756,491.2555,164.5646,495.4559,160.3642,499.2449,169.558,495.713" style="stroke: #A80036; stroke-width: 1.0;"/><text fill="#000000" font-family="sans-serif" font-size="13" lengthAdjust="spacingAndGlyphs" textLength="125" x="16.6235" y="439.4951">computePathRequest</text><path d="M195.397,472.948 C182.515,458.607 172.035,440.279 182.623,425 C200.378,399.38 231.887,385.897 260.913,378.809 " fill="none" style="stroke: #A80036; stroke-width: 1.0;"/><polygon fill="#A80036" points="265.923,377.642,256.2502,375.7878,261.0533,378.7762,258.065,383.5793,265.923,377.642" style="stroke: #A80036; stroke-width: 1.0;"/><text fill="#000000" font-family="sans-serif" font-size="13" lengthAdjust="spacingAndGlyphs" textLength="99" x="183.623" y="439.4951">computationError</text><path d="M256.589,472.847 C267.317,464.205 278.691,453.889 287.623,443 C298.316,429.965 307.471,413.556 314.219,399.695 " fill="none" style="stroke: #A80036; stroke-width: 1.0;"/><polygon fill="#A80036" points="316.414,395.101,308.9254,401.4979,314.2588,399.6127,316.1441,404.9462,316.414,395.101" style="stroke: #A80036; stroke-width: 1.0;"/><text fill="#000000" font-family="sans-serif" font-size="13" lengthAdjust="spacingAndGlyphs" textLength="111" x="300.623" y="439.4951">cancelComputation</text><path d="M255.474,523.109 C276.593,537.992 304.972,556.8742 331.623,571 C353.539,582.6155 378.512,593.4581 400.736,602.3346 " fill="none" style="stroke: #A80036; stroke-width: 1.0;"/><polygon fill="#A80036" points="405.434,604.1985,398.5439,597.161,400.7865,602.3543,395.5932,604.5969,405.434,604.1985" style="stroke: #A80036; stroke-width: 1.0;"/><text fill="#000000" font-family="sans-serif" font-size="13" lengthAdjust="spacingAndGlyphs" textLength="103" x="332.623" y="567.4951">finishComputation</text><path d="M507.49,230.036 C527.006,230.449 542.123,234.437 542.123,242 C542.123,248.854 529.708,252.771 512.854,253.754 " fill="none" style="stroke: #A80036; stroke-width: 1.0;"/><polygon fill="#A80036" points="507.49,253.964,516.6396,257.6087,512.4862,253.7683,516.3266,249.6148,507.49,253.964" style="stroke: #A80036; stroke-width: 1.0;"/><text fill="#000000" font-family="sans-serif" font-size="13" lengthAdjust="spacingAndGlyphs" textLength="84" x="548.123" y="247.4951">loadStreetMap</text><path d="M488.113,600.9085 C506.378,581.7813 529.473,553.2947 539.623,523 C546.684,501.929 541.497,495.143 539.623,473 C532.933,393.932 550.27,365.15 509.623,297 C503.555,286.826 494.794,277.845 485.54,270.273 " fill="none" style="stroke: #A80036; stroke-width: 1.0;"/><polygon fill="#A80036" points="481.55,267.114,486.1258,275.8354,485.471,270.2165,491.0898,269.5617,481.55,267.114" style="stroke: #A80036; stroke-width: 1.0;"/><text fill="#000000" font-family="sans-serif" font-size="13" lengthAdjust="spacingAndGlyphs" textLength="84" x="539.623" y="439.4951">loadStreetMap</text><path d="M387.241,358.003 C406.7,358.126 422.123,362.125 422.123,370 C422.123,377.137 409.457,381.09 392.598,381.86 " fill="none" style="stroke: #A80036; stroke-width: 1.0;"/><polygon fill="#A80036" points="387.241,381.997,396.3409,385.7643,392.2393,381.8684,396.1352,377.7669,387.241,381.997" style="stroke: #A80036; stroke-width: 1.0;"/><text fill="#000000" font-family="sans-serif" font-size="13" lengthAdjust="spacingAndGlyphs" textLength="72" x="428.123" y="375.4951">loadRequest</text><path d="M463.612,600.9434 C464.052,560.6545 459.614,478.681 420.623,425 C412.812,414.245 402.156,405.315 390.82,398.02 " fill="none" style="stroke: #A80036; stroke-width: 1.0;"/><polygon fill="#A80036" points="386.275,395.202,391.8142,403.3456,390.5238,397.8379,396.0315,396.5475,386.275,395.202" style="stroke: #A80036; stroke-width: 1.0;"/><text fill="#000000" font-family="sans-serif" font-size="13" lengthAdjust="spacingAndGlyphs" textLength="72" x="458.623" y="503.4951">loadRequest</text></g></svg>